<?xml version="1.0" encoding="UTF-8" standalone="no"?>
<svg
   xmlns:dc="http://purl.org/dc/elements/1.1/"
   xmlns:cc="http://creativecommons.org/ns#"
   xmlns:rdf="http://www.w3.org/1999/02/22-rdf-syntax-ns#"
   xmlns:svg="http://www.w3.org/2000/svg"
   xmlns="http://www.w3.org/2000/svg"
   xmlns:sodipodi="http://sodipodi.sourceforge.net/DTD/sodipodi-0.dtd"
   xmlns:inkscape="http://www.inkscape.org/namespaces/inkscape"
   version="1.0"
   width="180.000000pt"
   height="161.000000pt"
   viewBox="0 0 180.000000 161.000000"
   preserveAspectRatio="xMidYMid meet"
   id="svg2"
   inkscape:version="0.48.4 r9939"
   sodipodi:docname="tdflask.svg"
   inkscape:export-filename="/home/donquijote/Documentos/code/python/todo/static/img/tdflask.png"
   inkscape:export-xdpi="90.209999"
   inkscape:export-ydpi="90.209999">
  <defs
     id="defs12" />
  <sodipodi:namedview
     pagecolor="#ffffff"
     bordercolor="#666666"
     borderopacity="1"
     objecttolerance="10"
     gridtolerance="10"
     guidetolerance="10"
     inkscape:pageopacity="0"
     inkscape:pageshadow="2"
     inkscape:window-width="984"
     inkscape:window-height="636"
     id="namedview10"
     showgrid="false"
     inkscape:zoom="1.1726708"
     inkscape:cx="54.369679"
     inkscape:cy="141.85757"
     inkscape:window-x="10"
     inkscape:window-y="34"
     inkscape:window-maximized="0"
     inkscape:current-layer="g6" />
  <metadata
     id="metadata4">
Created by potrace 1.12, written by Peter Selinger 2001-2015
<rdf:RDF>
  <cc:Work
     rdf:about="">
    <dc:format>image/svg+xml</dc:format>
    <dc:type
       rdf:resource="http://purl.org/dc/dcmitype/StillImage" />
    <dc:title></dc:title>
  </cc:Work>
</rdf:RDF>
</metadata>
  <g
     transform="translate(0.000000,161.000000) scale(0.100000,-0.100000)"
     fill="#000000"
     stroke="none"
     id="g6">
    <path
       style="fill:#0f0f0f"
       d="m 1084.6619,143.21482 c -79.2764,6.4888 -191.40744,26.8251 -252.03124,45.7089 -82.5409,25.7107 -188.7831,89.3198 -262.2454,157.0107 -123.8811,114.1488 -239.8548,318.9851 -289.4802,511.28899 -15.2932,59.26271 -35.5104,126.73331 -44.9271,149.93449 -21.6563,53.3577 -16.291,89.3409 17.5697,117.8328 13.388,11.2652 28.1064,20.4822 32.7076,20.4822 5.1446,0 4.5637,4.5811 -1.5088,11.8981 -15.3684,18.5178 -3.7447,35.1016 36.7776,52.4715 36.8171,15.7816 37.1579,16.2762 32.9315,47.7861 -3.8014,28.342 -1.7179,33.657 18.9679,48.3866 27.369,19.4885 29.0323,33.5683 7.2384,61.2747 -21.2314,26.9914 -20.1754,40.6236 4,51.6386 15.1131,6.886 25.1314,6.7746 41.0006,-0.4559 18.2634,-8.3213 20.4248,-13.1163 16.5834,-36.7887 -5.4842,-33.7948 3.9876,-42.3467 50.573,-45.661 30.1571,-2.1455 36.2489,-5.4082 38.4017,-20.5675 2.9622,-20.8585 17.7645,-30.3165 59.7843,-38.1995 16.5266,-3.1004 34.4603,-11.6795 39.8527,-19.0647 12.1764,-16.6764 71.8371,-47.4677 147.1007,-75.9196 58.7723,-22.2177 103.4279,-54.6825 94.6818,-68.834 -6.9412,-11.2311 -24.2529,-9.9566 -72.8547,5.3638 -36.2531,11.4277 -44.1932,11.7428 -55.6803,2.2094 -11.7312,-9.736 -12.7165,-22.5887 -7.9214,-103.3285 11.8279,-199.15789 40.8,-332.78868 90.5425,-417.61768 34.3546,-58.5871 117.4727,-154.8508 167.9532,-194.5162 78.28374,-61.5117 203.43084,-118.2068 284.76754,-129.0073 30.8198,-4.0925 35.4955,-2.0546 64.8386,28.2606 22.1694,22.9038 38.3132,32.6712 54,32.6712 26.4775,0 28.1802,-10.098 6.3764,-37.817 -22.4868,-28.5873 -20.2186,-34.1562 14,-34.3739 16.5,-0.1048 43.3704,-3.2965 59.712,-7.0925 21.182,-4.9203 33.8074,-3.9071 43.9773,3.5294 8.3103,6.0766 17.7425,7.5453 22.5948,3.5182 4.5812,-3.802 31.5914,-8.0044 60.0227,-9.3385 46.5798,-2.1858 51.945,-4.1986 54.2394,-20.3483 2.7676,-19.4799 -3.8704,-23.4456 -76.0494,-45.434 -22.8267,-6.9539 -55.2505,-12.6434 -72.0528,-12.6434 -16.8023,0 -43.1258,-3.8281 -58.4968,-8.507 -73.032,-22.2304 -255.1993,-34.9795 -367.9472,-25.7511 z m 150.3071,14.6177 c -2.3977,2.3978 -50.6977,6.1698 -107.3333,8.3822 -56.6356,2.2124 -124.7465,7.4036 -151.35754,11.5357 -56.9899,8.8495 -142.5874,41.8175 -133.7674,51.5207 3.3831,3.7218 1.5343,4.1052 -4.1085,0.8518 -5.7649,-3.3238 -33.4502,4.937 -63.1946,18.8562 -29.1143,13.6241 -54.7975,22.9088 -57.0738,20.6325 -2.2762,-2.2763 0.9613,-4.1938 7.1947,-4.2612 9.0529,-0.098 9.2349,-1.4534 0.9045,-6.7372 -7.1088,-4.5089 7.1446,-14.4724 44.7726,-31.2972 73.3049,-32.7773 126.1286,-47.5368 217.6562,-60.8156 74.78604,-10.8499 254.82504,-17.1857 246.30714,-8.6679 z m -478.30714,83.6404 c -15.4,8.4311 -24.4,15.3294 -20,15.3294 4.4,0 20.6,-6.8983 36,-15.3294 15.4,-8.4311 24.4,-15.3294 20,-15.3294 -4.4,0 -20.6,6.8983 -36,15.3294 z m 196,-40.7007 c -8.8,3.4569 -28.6,8.3777 -44,10.9352 l -28,4.6501 24,-11.0815 c 13.2,-6.0948 33,-11.0157 44,-10.9352 17.9768,0.1312 18.3814,0.7824 4,6.4314 z m 171.94894,24.7323 c -7.4591,4.61 -7.1891,6.9445 1.1459,9.9047 5.9978,2.1303 9.001,5.9703 6.6735,8.5335 -8.4021,9.2531 -24.1889,-8.0651 -19.2009,-21.0635 2.81,-7.3229 8.7163,-11.0851 13.125,-8.3604 5.06,3.1273 4.417,7.1783 -1.7435,10.9857 z m -25.4403,18.1327 c 3.5966,18.6754 -16.5862,17.6397 -34.1351,-1.7516 -13.6825,-15.119 -13.4217,-15.5347 8.6822,-13.8357 14.3269,1.1012 23.7778,6.8889 25.4529,15.5873 z m 157.4914,-10.5005 c 13.2307,5.4076 9.305,8.2736 -22.6814,16.5591 -21.2747,5.5108 -40.5599,14.9151 -42.8559,20.8984 -2.3727,6.1833 -15.7702,10.8787 -31.0402,10.8787 -18.2967,0 -35.3755,7.4717 -53.5456,23.4252 -14.6739,12.8839 -45.6119,30.6188 -68.7511,39.411 -51.97964,19.7508 -95.29064,52.0212 -107.35424,79.9883 -5.0238,11.6465 -18.2775,32.3067 -29.4528,45.9115 -11.1754,13.6049 -34.7188,45.0465 -52.3188,69.8704 -17.6,24.8239 -33.1808,41.6502 -34.6241,37.3918 -1.4432,-4.2584 -11.846,3.2172 -23.1173,16.6124 -14.823,17.6161 -18.0742,26.7738 -11.7503,33.0977 5.1661,5.1661 6.028,13.9688 2.1066,21.5173 -3.6499,7.0259 -13.1548,41.5744 -21.1219,76.77439 -7.9672,35.2 -15.5253,65.413 -16.796,67.14 -1.2707,1.727 -7.7973,-1.4138 -14.5037,-6.9796 -15.1757,-12.5946 -16.5842,2.3012 -1.6329,17.2682 10.6637,10.6747 7.022,79.18 -9.3864,176.57141 -3.5212,20.89998 -3.4258,37.99998 0.2119,37.99998 10.514,0 7.6637,51.5065 -3.7111,67.0625 -8.2737,11.315 -14.2345,12.5148 -30,6.0384 -10.8212,-4.4453 -33.4391,-10.3242 -50.2621,-13.0643 -24.969,-4.0669 -28.8906,-7.0263 -21.3503,-16.1117 7.6928,-9.2693 4.4476,-10.3526 -19.4128,-6.4806 -18.7171,3.0374 -28.6496,1.5128 -28.6496,-4.3976 0,-4.9757 -7.2,-9.0467 -16,-9.0467 -8.8,0 -23.2,-7.2 -32,-16 -9.1369,-9.1369 -26.6667,-16 -40.8673,-16 -23.2481,0 -24.4768,-1.4325 -18.8715,-21.99998 11.8468,-43.4688 9.1288,-52.3366 -18.2612,-59.5809 -14.3,-3.7821 -26,-11.8736 -26,-17.9812 0,-6.1075 -4.5,-12.61911 -10,-14.47031 -14.4914,-4.8773 7.6187,-29.9676 26.4081,-29.9676 23.9351,0 39.5919,-22.7588 39.5919,-57.551 0,-28.6829 -1.4586,-31.1976 -12.6896,-21.8767 -8.592,7.1307 -11.2202,17.8787 -8.1391,33.2841 5.5377,27.6885 -13.801,38.9425 -33.341,19.4024 -11.9055,-11.9054 -11.5339,-14.4142 4.6935,-31.6874 9.6924,-10.3171 14.9196,-21.4613 11.616,-24.7649 -3.3036,-3.3036 -0.01,-9.3643 7.3268,-13.4682 7.3333,-4.104 17.4825,-20.034 22.5538,-35.4 9.833,-29.7945 13.2395,-31.9551 31.8391,-20.1944 9.9034,6.262 8.0071,11.5198 -11.4967,31.8775 -18.3814,19.186 -20.449,24.3786 -9.7071,24.3786 10.3982,0 12.5057,4.5556 8.8485,19.1272 -2.6404,10.52 -0.9089,21.5325 3.8476,24.4722 5.4777,3.3854 8.6482,-3.6268 8.6482,-19.1273 0,-27.5432 1.6172,-28.4934 24.6296,-14.4721 14.2032,8.6539 18.4961,7.4577 31.8914,-8.8863 20.942,-25.5517 19.4634,-35.7406 -4.521,-31.1557 -25.0652,4.7915 -25.3116,-2.179 -0.8879,-25.1238 10.5116,-9.8752 21.2216,-28.50269 23.8,-41.39449 3.2524,-16.262 9.4445,-23.4397 20.2212,-23.4397 8.5434,0 17.3492,-4.5 19.5685,-10 2.4105,-5.9739 4.2893,-4.3635 4.6666,4 1.0822,23.9883 23.5863,14.6204 40.0821,-16.6852 12.7042,-24.1097 20.7802,-16.6691 8.6832,8 -6.9993,14.2736 -3.2673,12.3966 15.8068,-7.9501 27.7108,-29.5598 27.8997,-42.7925 0.7026,-49.2129 -17.5681,-4.1472 -17.6806,-4.733 -3.3922,-17.6638 8.1281,-7.3559 24.4836,-17.0642 36.3454,-21.5741 27.0182,-10.2723 52.2162,-46.3015 40.5448,-57.9729 -5.6499,-5.6498 -18.8318,-2.8325 -41.9645,8.9689 -18.5499,9.4635 -35.6343,15.2991 -37.9654,12.9679 -2.3311,-2.331 33.4569,-21.8848 79.5288,-43.4528 104.4084,-48.8774 181.185,-113.425 134.9143,-113.425 -23.844,0 -40.6543,8.6238 -40.6543,20.8559 0,6.1292 -7.087,11.1441 -15.7489,11.1441 -22.0157,0 -12.5797,-20.385 14.3237,-30.9442 11.7839,-4.625 31.8876,-9.4546 44.675,-10.7324 17.6762,-1.7664 23.9526,-7.0016 26.1809,-21.8376 3.5853,-23.8698 6.35,-26.8488 26.2792,-28.3171 8.6362,-0.636 22.9003,-7.6711 31.6982,-15.633 10.5282,-9.5279 20.8833,-12.3779 30.29394,-8.3379 36.0935,15.4956 87.2393,11.6031 154.298,-11.7432 74.4427,-25.9171 76.7303,-26.3012 100,-16.7908 z m -386.58064,225.0363 c -5.7904,9.2719 -8.9916,18.3944 -7.1137,20.2722 5.5501,5.5502 23.4569,-19.6844 20.4243,-28.7823 -1.5304,-4.5914 -7.5202,-0.7616 -13.3106,8.5101 z m -112.7878,195.9666 c 0.3838,9.3195 2.2795,11.2152 4.8333,4.8333 2.311,-5.775 2.0268,-12.675 -0.6316,-15.3333 -2.6583,-2.6584 -4.5491,2.0666 -4.2017,10.5 z m -173.9281,107.81189 c -9.513,3.5669 -19.5973,13.7347 -22.4095,22.5951 -2.8122,8.8604 -9.4288,15.0836 -14.7035,13.8292 -5.2748,-1.2543 -6.8905,-0.7706 -3.5905,1.0749 3.3,1.8456 6.2842,11.1555 6.6316,20.6889 0.3473,9.5333 2.4548,12.8109 4.6833,7.2835 2.2284,-5.5275 6.7933,-8.3555 10.1442,-6.2845 3.3509,2.071 15.2349,-6.0066 26.4089,-17.9502 24.5077,-26.1954 20.1171,-51.4662 -7.1645,-41.2369 z m 87.9397,8.2297 c -14.9483,18.1824 -20.8113,52.8869 -11.6083,68.7122 7.4388,12.7916 8.5084,12.9444 8.7218,1.2462 0.1339,-7.3334 4.109,-14.6219 8.8337,-16.1968 4.7874,-1.5958 7.4436,-16.6493 6,-34.0032 -2.0887,-25.1081 -4.4028,-28.9352 -11.9472,-19.7584 z m -207.4033,88.6669 c -8.3819,9.5563 -10.7399,14.7438 -5.2399,11.5278 5.5,-3.216 10,-2.1478 10,2.3738 0,4.5216 6.3,5.9236 14,3.1156 12.1859,-4.4439 11.9267,-2.7055 -2,13.4152 l -16,18.52051 17.5544,-9.20701 c 20.3638,-10.6806 31.2384,-25.1211 18.9177,-25.1211 -4.6596,0 -8.4721,-7.2 -8.4721,-16 0,-20.7508 -9.7626,-20.284 -28.7601,1.3752 z m 53.3919,32.7427 c -29.9532,15.28271 -28.6895,27.29731 2.7615,26.25381 15.3037,-0.5078 30.6934,-3.7918 34.1994,-7.2977 3.506,-3.506 -4.4181,-3.748 -17.6091,-0.5378 l -23.9836,5.8368 20,-16.92041 c 22.2259,-18.8034 14.4156,-22.531 -15.3682,-7.3347 z m 8.9682,47.48211 c -5.28,5.28 -9.6,14.3105 -9.6,20.0678 0,8.4652 3.061,8.5562 16,0.4756 8.8,-5.4957 16,-14.5262 16,-20.0678 0,-12.7174 -9.947,-12.9286 -22.4,-0.4756 z m 153.8224,41.0204 c -2.2415,5.8412 0.042,21.14118 5.075,33.99998 l 9.1503,23.3796 7.3473,-19.1594 c 8.0353,-20.95378 2.4482,-48.84058 -9.7852,-48.84058 -4.2416,0 -9.5459,4.7792 -11.7874,10.6204 z m 744.17924,-747.265 c 5.9901,9.6921 -95.221,20.3816 -108.9674,11.5087 -7.0288,-4.5369 2.9274,-8.4723 29.3658,-11.6073 64.6608,-7.6674 74.8098,-7.6548 79.6016,0.098 z m 186.4917,6.1412 c -7.6487,2.0024 -22.0487,2.075 -32,0.1616 -9.9513,-1.9135 -3.6933,-3.5518 13.9067,-3.6406 17.6,-0.089 25.742,1.4769 18.0933,3.4792 z m -962.34544,90.782 c -8.1025,8.9532 -23.9605,20.6692 -35.2399,26.0355 -11.2794,5.3662 -24.0617,17.8409 -28.405,27.7213 -4.3434,9.8806 -10.9276,17.9646 -14.6316,17.9646 -10.973,0 -72.949,66.2874 -82.7214,88.4758 -4.9599,11.2617 -27.8239,45.4617 -50.8088,76 -22.9848,30.5384 -48.2766,70.4276 -56.2039,88.6429 -7.9272,18.2153 -18.5423,35.6706 -23.589,38.7897 -13.8647,8.56879 36.8967,-88.4548 79.4763,-151.9084 20.6678,-30.8 47.1845,-71.1882 58.9258,-89.7517 22.8542,-36.1332 109.576,-122.6938 131.9311,-131.686 28.1935,-11.3406 36.7746,-7.4201 21.2664,9.7163 z m 128.8489,22.7557 c -4.6115,7.4616 -36.5968,17.9136 -36.5968,11.959 0,-1.9299 8.1,-6.7647 18,-10.744 23.4692,-9.4335 23.6848,-9.4475 18.5968,-1.215 z m -12.5968,40.9657 c -6.6,4.2653 -15.6,7.755 -20,7.755 -4.4,0 -2.6,-3.4897 4,-7.755 6.6,-4.2653 15.6,-7.755 20,-7.755 4.4,0 2.6,3.4897 -4,7.755 z m -8,19.7946 c 0,6.2977 -49.1828,29.6892 -53.4507,25.4214 -2.1801,-2.1802 6.2544,-9.5014 18.7434,-16.2696 23.5145,-12.7432 34.7073,-15.6946 34.7073,-9.1518 z m -64,10.9391 c 0,8.3422 -55.0907,25.3607 -80.9282,25.0001 l -19.0718,-0.2664 18.8863,-15.7338 c 18.9165,-15.7588 81.1137,-22.6601 81.1137,-8.9999 z m 84,9.2663 c -8.8,3.7815 -21.4,6.8754 -28,6.8754 -7.5638,0 -6.0851,-2.5416 4,-6.8754 8.8,-3.7815 21.4,-6.8754 28,-6.8754 7.5638,0 6.0851,2.5416 -4,6.8754 z m -84,27.1441 c 0,1.7293 -5.587,5.288 -12.4155,7.9084 -7.1194,2.7319 -10.3306,1.3908 -7.5279,-3.1441 4.6981,-7.6017 19.9434,-11.2436 19.9434,-4.7643 z m -53.6621,34.8559 c -2.838,7.7 -14.4251,26.3198 -25.749,41.3773 -11.3239,15.0574 -19.3828,29.4574 -17.9086,32 1.4742,2.5425 6.0709,8.7081 10.215,13.7015 10.808,13.0228 -28.9862,21.5762 -49.4439,10.6276 -18.2973,-9.7924 -14.6128,-35.7464 7.7127,-54.3288 11.6376,-9.6864 11.5289,-10.2728 -1.1641,-6.2818 -27.552,8.6632 -13.2221,-3.2408 32,-26.5828 25.3,-13.0588 46.787,-23.9166 47.7489,-24.1282 0.9619,-0.212 -0.573,5.9152 -3.411,13.6152 z m -72.8727,149.9544 c -8.9974,11.4383 -18.6939,31.4279 -21.5477,44.4213 -2.8538,12.99339 -8.1657,23.62429 -11.8042,23.62429 -3.6385,0 -4.5738,-7.8072 -2.0784,-17.34939 3.6781,-14.065 1.8812,-16.3302 -9.4922,-11.9658 -24.5558,9.4229 -52.5427,15.1951 -52.5427,10.8368 0,-18.596 17.398,-34.6456 58.7618,-54.2076 26.5936,-12.5768 49.8618,-21.357 51.7072,-19.5117 1.8453,1.8453 -4.0064,12.7137 -13.0038,24.1521 z m -201.3468,82.04559 c -8.2471,20.9 -17.1871,51.3737 -19.8665,67.7194 -2.6794,16.3456 -8.944,32.2362 -13.9213,35.3123 -6.0844,3.7604 -7.2335,0.8604 -3.507,-8.8509 4.6855,-12.2101 3.6585,-12.8802 -6.6405,-4.3328 -16.6198,13.7932 -15.8003,10.3835 12.6759,-52.7415 35.4379,-78.55769 58.3471,-105.75199 31.2594,-37.1065 z m -48.1184,154 c 0,4.4 -3.8125,8 -8.4721,8 -4.6597,0 -6.2473,-3.6 -3.5279,-8 2.7194,-4.4 6.5318,-8 8.4721,-8 1.9404,0 3.5279,3.6 3.5279,8 z m 53.8333,28.83331 c -2.6583,2.6584 -9.5583,2.9426 -15.3333,0.6316 -6.3819,-2.5538 -4.4862,-4.4494 4.8333,-4.8333 8.4334,-0.3474 13.1584,1.5434 10.5,4.2018 z m -5.8333,59.1667 c 0,4.4 -1.5875,8 -3.5279,8 -1.9403,0 -5.7527,-3.6 -8.4721,-8 -2.7194,-4.4 -1.1318,-8 3.5279,-8 4.6596,0 8.4721,3.6 8.4721,8 z m 75.7519,16.4014 c -2.5829,4.1792 -14.3837,7.5435 -26.224,7.4761 -16.8382,-0.096 -18.9138,-1.8119 -9.5279,-7.8775 6.6,-4.2652 9.0875,-7.8101 5.5279,-7.8775 -3.5597,-0.067 -4.2412,-3.7322 -1.5145,-8.1441 3.2898,-5.3232 10.2521,-5.1881 20.6962,0.4013 8.6562,4.6327 13.6252,11.8424 11.0423,16.0217 z m -160.82,85.87028 c 3.3068,5.3506 13.8999,9.4441 23.5402,9.0967 9.6404,-0.3473 13.0279,-2.4473 7.5279,-4.6666 -16.4942,-6.6556 -11.3496,-25.4487 10.9699,-40.0729 19.9224,-13.0537 21.5003,-13.0146 31.5893,0.7829 8.1871,11.1966 16.8179,13.3601 37.6819,9.446 20.3387,-3.8156 39.8201,0.6371 78.4107,17.9218 29.1095,13.0381 73.2729,25.1873 101.9715,28.0521 112.1732,11.1973 185.3767,42.2211 185.3767,78.5628 0,12.7736 -7.1468,14.6055 -56.9796,14.6055 -48.9796,0 -55.6221,-1.6356 -47.3112,-11.6496 5.3175,-6.4072 7.443,-15.25 4.7233,-19.6506 -7.2576,-11.743 -30.0854,-0.5463 -25.1433,12.3325 6.4416,16.7866 -22.5542,13.7348 -115.9018,-12.1987 -45.8631,-12.7415 -95.9874,-25.7649 -111.3874,-28.9408 -34.5666,-7.1286 -44.0319,-12.3986 -33.9324,-18.8928 4.2768,-2.75 10.3037,-13.1 13.3932,-23 4.248,-13.6119 2.4324,-18 -7.4476,-18 -20.3137,0 -44.0132,15.3106 -44.0132,28.4339 0,8.8541 -5.5909,10.5738 -22,6.7668 -51.3037,-11.9029 -68.6766,-38.6844 -52.2495,-80.5464 4.4788,-11.4135 6.792,-8.402 10.4598,13.6174 2.59,15.5495 7.4147,32.6495 10.7216,38 z m 153.5991,8.9106 c -11.101,4.3471 -12.687,7.777 -5.6169,12.1466 11.9617,7.3927 33.0859,0.32 33.0859,-11.0778 0,-9.4219 -5.5838,-9.6391 -27.469,-1.0688 z m 19.469,32.8177 c 0,4.4 3.3875,8 7.5279,8 4.1403,0 9.7527,-3.6 12.4721,-8 2.7194,-4.4 -0.6682,-8 -7.5279,-8 -6.8596,0 -12.4721,3.6 -12.4721,8 z m 55.3177,26.5177 c 3.6156,3.6156 20.5482,5.3521 37.6281,3.8588 l 31.0542,-2.7151 -37.6281,-3.8588 c -20.6954,-2.1223 -34.6698,-0.9005 -31.0542,2.7151 z m 166.549,22.475 c 5.4266,5.4673 11.8819,7.9254 14.345,5.4623 2.4631,-2.4631 -1.9769,-6.9364 -9.8667,-9.9407 -11.4016,-4.3414 -12.3205,-3.4225 -4.4783,4.4784 z m 177.9016,-24.6802 c -18.8316,11.9094 -28.3774,8.8217 -11.3099,-3.6584 8.534,-6.2403 17.2178,-9.6445 19.2973,-7.565 2.0795,2.0795 -1.5148,7.13 -7.9874,11.2234 z m -289.968,48.14 c 2.7778,10.6221 8.5834,14.8097 16.3826,11.8168 9.8525,-3.7807 10.2693,-2.4535 2.2599,7.1971 -5.4011,6.508 -7.4979,15.5904 -4.6594,20.1832 7.4195,12.0049 -6.8447,10.2694 -87.7834,-10.6804 l -72,-18.6361 46.0121,-3.1666 c 26.2992,-1.8099 47.3652,0.2609 49.1703,4.8335 1.737,4.4 9.1357,-0.1 16.4415,-10 16.5366,-22.4084 28.5786,-22.9537 34.1764,-1.5475 z m -43.3675,63.9866 c 3.2066,12.262 -0.7541,18.3603 -15.5877,24 -37.4388,14.2342 -43.7554,7.8422 -22.3915,-22.6591 15.5883,-22.2553 32.3552,-22.8473 37.9792,-1.3409 z m -56.2805,-3.1916 c -5.4163,2.1914 -16.2163,2.3248 -24,0.2964 -7.7838,-2.0283 -3.3523,-3.8213 9.8477,-3.9843 13.2,-0.163 19.5685,1.4965 14.1523,3.6879 z m 19.681,71.5858 c -2.6583,2.6584 -9.5583,2.9426 -15.3333,0.6316 -6.3819,-2.5538 -4.4862,-4.4494 4.8333,-4.8333 8.4334,-0.3474 13.1584,1.5434 10.5,4.2018 z m -56.1529,86.1256 c -4.6397,13.9191 -41.1012,10.911 -43.8999,-3.6217 -1.9117,-9.9266 2.8932,-11.8802 22.2375,-9.041 13.5974,1.9957 23.323,7.6808 21.6624,12.6627 z"
       id="path3000"
       inkscape:connector-curvature="0" />
    <text
       xml:space="preserve"
       style="font-size:112px;font-style:normal;font-variant:normal;font-weight:500;font-stretch:normal;line-height:125%;letter-spacing:0px;word-spacing:0px;fill:#000000;fill-opacity:1;stroke:none;font-family:Dotsies;-inkscape-font-specification:Dotsies Medium"
       x="856.16522"
       y="-562.81775"
       id="text3002"
       sodipodi:linespacing="125%"
       transform="scale(1,-1)"><tspan
         sodipodi:role="line"
         id="tspan3004"
         x="856.16522"
         y="-562.81775"
         style="font-size:480px;font-style:normal;font-variant:normal;font-weight:normal;font-stretch:normal;font-family:Droid Serif;-inkscape-font-specification:Droid Serif"><tspan
   style="fill:#ff0000"
   id="tspan3010">.</tspan>txt</tspan></text>
    <text
       xml:space="preserve"
       style="font-size:112px;font-style:normal;font-variant:normal;font-weight:500;font-stretch:normal;line-height:125%;letter-spacing:0px;word-spacing:0px;fill:#000000;fill-opacity:1;stroke:none;font-family:Dotsies;-inkscape-font-specification:Dotsies Medium"
       x="994.98944"
       y="-923.04578"
       id="text3006"
       sodipodi:linespacing="125%"
       transform="scale(1,-1)"><tspan
         sodipodi:role="line"
         id="tspan3008"
         x="994.98944"
         y="-923.04578"
         style="font-size:280px;font-style:normal;font-variant:normal;font-weight:bold;font-stretch:normal;font-family:Droid Serif;-inkscape-font-specification:Droid Serif Bold">todo</tspan></text>
  </g>
</svg>
